# AST/ASF file generated using VICON BodyLanguage
# -----------------------------------------------
:version 1.10
:name VICON
:units
  mass 1.0
  length 0.45
  angle deg
:documentation
   .ast/.asf automatically generated from VICON data using
   VICON BodyBuilder and BodyLanguage model FoxedUp or BRILLIANT.MOD
:root
   order TX TY TZ RX RY RZ
   axis XYZ
   position 0 0 0  
   orientation 0 0 0 
:bonedata
  begin
     id 1 
     name lhipjoint
     direction 0.610259 -0.730986 0.305356 
     length 2.50941 
     axis 0 0 0  XYZ
  end
  begin
     id 2 
     name lfemur
     direction 0.34202 -0.939693 0  
     length 7.48822  
     axis 0 0 20  XYZ
    dof rx ry rz
    limits (-160.0 20.0)
           (-70.0 70.0)
           (-60.0 70.0)
  end
  begin
     id 3 
     name ltibia
     direction 0.34202 -0.939693 0   
     length 7.60141   
     axis 0 0 20   XYZ
    dof rx
    limits (-10.0 170.0)
  end
  begin
     id 4 
     name lfoot
     direction 0.0673488 -0.185039 0.980421   
     length 2.04049   
     axis -90 7.62852e-016 20   XYZ
    dof rx rz
    limits (-45.0 90.0)
           (-70.0 20.0)
  end
  begin
     id 5 
     name ltoes
     direction 1.5356e-011 -4.21729e-011 1   
     length 1.02897   
     axis -90 7.62852e-016 20   XYZ
    dof rx
    limits (-90.0 20.0)
  end
  begin
     id 6 
     name rhipjoint
     direction -0.57612 -0.754205 0.315056   
     length 2.43216  
     axis 0 0 0  XYZ 
  end
  begin
     id 7 
     name rfemur
     direction -0.34202 -0.939693 0   
     length 7.42799   
     axis 0 0 -20   XYZ
    dof rx ry rz
    limits (-160.0 20.0)
           (-70.0 70.0)
           (-70.0 60.0)
  end
  begin
     id 8 
     name rtibia
     direction -0.34202 -0.939693 0   
     length 7.69484   
     axis 0 0 -20   XYZ
    dof rx
    limits (-10.0 170.0)
 end
 begin
     id 9 
     name rfoot
     direction -0.111837 -0.30727 0.945028   
     length 2.15769  
     axis -90 -7.62852e-016 -20   XYZ
    dof rx rz
    limits (-45.0 90.0)
           (-20.0 70.0)
  end
  begin
     id 10 
     name rtoes
     direction -1.53539e-011 -4.21878e-011 1   
     length 1.07391   
     axis -90 -7.62852e-016 -20   XYZ
    dof rx
    limits (-90.0 20.0)
  end
  begin
     id 11 
     name lowerback
     direction 0.00552624 0.990109 -0.140195   
     length 2.12403   
     axis 0 0 0   XYZ
    dof rx ry rz
    limits (-20.0 45.0)
           (-30.0 30.0)
           (-30.0 30.0)
  end
  begin
     id 12 
     name upperback
     direction 0.00361898 0.999976 -0.00584723   
     length 2.13232   
     axis 0 0 0   XYZ
    dof rx ry rz
    limits (-20.0 45.0)
           (-30.0 30.0)
           (-30.0 30.0)
  end
  begin
     id 13 
     name thorax
     direction -0.000331275 0.998253 0.0590847   
     length 2.17688   
     axis 0 0 0   XYZ
    dof rx ry rz
    limits (-20.0 45.0)
           (-30.0 30.0)
           (-30.0 30.0)
  end
  begin
     id 14 
     name lowerneck
     direction -0.0561561 0.979832 0.19177   
     length 1.64159   
     axis 0 0 0   XYZ
    dof rx ry rz
    limits (-20.0 45.0)
           (-30.0 30.0)
           (-30.0 30.0)
  end
  begin
     id 15 
     name upperneck
     direction 0.0827153 0.979385 -0.184293   
     length 1.68939   
     axis 0 0 0   XYZ
    dof rx ry rz
    limits (-20.0 45.0)
           (-30.0 30.0)
           (-30.0 30.0)
  end
  begin
     id 16
     name head
     direction 0.0278583 0.995936 -0.0856488  
     length 1.70207  
     axis 0 0 0   XYZ
    dof rx ry rz
    limits (-20.0 45.0)
           (-30.0 30.0)
           (-30.0 30.0)
  end
  begin
     id 17 
     name lclavicle
     direction 0.950993 0.301131 -0.0702275  
     length 3.41652  
     axis 0 0 0   XYZ
    dof ry rz
    limits (-20.0 10.0)
           (0.0 20.0)
  end
  begin
     id 18 
     name lhumerus
     direction 1 -4.48981e-011 -3.9662e-029   
     length 5.32955   
     axis 180 -30 -90   XYZ
    dof rx ry rz
    limits (-60.0 90.0)
           (-90.0 90.0)
           (-90.0 90.0)
  end
  begin
     id 19
     name lradius
     direction 1 -4.48925e-011 -9.0549e-027   
     length 3.69232   
     axis 180 -30 -90   XYZ
    dof rx
    limits (-10.0 170.0)
  end
  begin
     id 20
     name lwrist
     direction 1 -4.49007e-011 -1.49005e-026   
     length 1.84616   
     axis 9.0955e-015 90 90   XYZ
    dof ry
    limits (-180.0 0.0)
 end
  begin
     id 21 
     name lhand
     direction 1 -4.49016e-011 -2.98023e-026   
     length 0.536598   
     axis 1.90115e-014 90 90   XYZ
    dof rx rz
    limits (-90.0 90.0)
           (-45.0 45.0)
  end
  begin
     id 22 
     name lfingers
     direction 1 -4.48924e-011 -5.9578e-026   
     length 0.432619   
     axis 3.80223e-014 90 90   XYZ
    dof rx
    limits (0.0 90.0)
  end
  begin
     id 23
     name lthumb
     direction 0.707107 -6.34947e-011 0.707107   
     length 0.621157   
     axis -90 45 -3.84942e-014   XYZ
    dof rx rz
    limits (-45.0 45.0)
           (-45.0 45.0)
  end
  begin
     id 24 
     name rclavicle
     direction -0.955495 0.276497 -0.102848   
     length 3.36357  
     axis 0 0 0   XYZ 
    dof ry rz
    limits (-10.0 20.0)
           (-20.0 0.0)
  end
  begin
     id 25 
     name rhumerus
     direction -1 -4.48961e-011 3.30983e-027  
     length 5.23431   
     axis 180 30 90   XYZ
    dof rx ry rz
    limits (-90.0 60.0)
           (-90.0 90.0)
           (-90.0 90.0)
  end
  begin
     id 26 
     name rradius
     direction -1 -4.48965e-011 -6.63263e-027   
     length 3.55301   
     axis 180 30 90   XYZ
    dof rx
    limits (-10.0 170.0)
  end
  begin
     id 27 
     name rwrist
     direction -1 -4.48942e-011 -1.48958e-026   
     length 1.77651   
     axis 9.0955e-015 -90 -90   XYZ
    dof ry
    limits (-180.0 0.0)
  end
  begin
     id 28
     name rhand
     direction -1 -4.48977e-011 -2.97966e-026   
     length 0.772522   
     axis 1.90115e-014 -90 -90   XYZ
    dof rx rz
    limits (-90.0 90.0)
           (-45.0 45.0)
  end
  begin
     id 29
     name rfingers
     direction -1 -4.49135e-011 -5.96389e-026   
     length 0.622827   
     axis 3.80223e-014 -90 -90   XYZ
    dof rx
    limits (0.0 90.0)
  end
  begin
     id 30
     name rthumb
     direction -0.707107 -6.34969e-011 0.707107   
     length 0.894259   
     axis -90 -45 3.84942e-014   XYZ
    dof rx rz
    limits (-45.0 45.0)
           (-45.0 45.0)
  end
:hierarchy
  begin
    root lhipjoint rhipjoint lowerback
    lhipjoint lfemur
    lfemur ltibia
    ltibia lfoot
    lfoot ltoes
    rhipjoint rfemur
    rfemur rtibia
    rtibia rfoot
    rfoot rtoes
    lowerback upperback
    upperback thorax
    thorax lowerneck lclavicle rclavicle
    lowerneck upperneck
    upperneck head
    lclavicle lhumerus
    lhumerus lradius
    lradius lwrist
    lwrist lhand lthumb
    lhand lfingers
    rclavicle rhumerus
    rhumerus rradius
    rradius rwrist
    rwrist rhand rthumb
    rhand rfingers
  end

#!OML:ASF F:\VICON\USERDATA\INSTALL\rory3\rory3.ASF
:FULLY-SPECIFIED
:DEGREES
61
root -8.5105 17.8682 -9.40392 -45.2778 -84.8063 42.4515
lowerback 11.6838 2.36902 0.817472
upperback 1.24331 3.17078 -0.558926
thorax -5.16518 1.51895 -1.54575
lowerneck -16.9168 4.68937 -8.24472
upperneck 40.9095 6.79582 5.20118
head 17.3126 1.74459 4.98552
rclavicle 9.19379e-015 -1.35174e-014
rhumerus -33.0638 -17.4294 -74.9253
rradius 30.4522
rwrist 5.17598
rhand -17.9651 8.39357
rfingers 7.12502
rthumb 8.30401 -21.4232
lclavicle 9.19379e-015 -1.35174e-014
lhumerus -31.9843 20.5051 75.674
lradius 26.8826
lwrist -9.95398
lhand -22.245 25.5088
lfingers 7.12502
lthumb 4.17219 55.4477
rfemur 1.30462 0.86888 15.7282
rtibia 24.3866
rfoot -18.7612 1.54316
rtoes -1.44727
lfemur -8.50541 -7.39541 -6.48194
ltibia 28.6184
lfoot -1.75794 4.97988
ltoes -1.95916
62
root -8.51436 17.8744 -9.33054 -46.0965 -84.8622 43.3548
lowerback 11.5642 2.41105 0.811139
upperback 1.22022 3.22482 -0.58783
thorax -5.12008 1.54649 -1.57564
lowerneck -17.2934 4.70935 -8.13925
upperneck 41.3614 6.85823 5.12681
head 17.6737 1.73124 4.9971
rclavicle 7.20594e-016 4.77083e-015
rhumerus -33.0054 -17.1334 -75.0365
rradius 30.4869
rwrist 5.4907
rhand -17.5728 8.56785
rfingers 7.12502
rthumb 8.68259 -21.2336
lclavicle 7.20594e-016 4.77083e-015
lhumerus -32.0358 20.6572 75.5942
lradius 26.8633
lwrist -9.96694
lhand -22.7792 26.2388
lfingers 7.12502
lthumb 3.65628 56.1872
rfemur 1.40258 0.918765 15.4156
rtibia 24.0215
rfoot -18.6622 1.67137
rtoes -1.57695
lfemur -8.35313 -7.4543 -6.01062
ltibia 28.0678
lfoot -1.01139 5.23263
ltoes -2.86597
63
root -8.52057 17.8798 -9.25285 -45.3463 -85.0052 42.6769
lowerback 11.4741 2.4363 1.00263
upperback 1.17303 3.28481 -0.576032
thorax -5.10761 1.57302 -1.67688
lowerneck -17.7227 4.71263 -7.96682
upperneck 41.7813 6.89446 5.01831
head 18.0475 1.71449 4.97856
rclavicle -1.95803e-014 0
rhumerus -32.9909 -16.6048 -75.1906
rradius 30.608
rwrist 5.4767
rhand -17.3463 8.66641
rfingers 7.12502
rthumb 8.9012 -21.1258
lclavicle -1.95803e-014 0
lhumerus -32.0521 20.7049 75.5234
lradius 26.8048
lwrist -9.93932
lhand -24.0241 27.6265
lfingers 7.12502
lthumb 2.45405 57.5921
rfemur 1.50578 0.991629 15.2708
rtibia 23.6775
rfoot -18.569 1.84239
rtoes -1.84382
lfemur -8.17109 -7.52797 -5.35318
ltibia 27.4921
lfoot -0.483608 5.46688
ltoes -2.84516
64
root -8.52647 17.8838 -9.17447 -45.2389 -85.1374 42.6115
lowerback 11.4455 2.4588 1.13313
upperback 1.1211 3.33307 -0.570179
thorax -5.13751 1.5941 -1.75153
lowerneck -17.4402 4.74651 -8.25937
upperneck 41.4038 6.91439 5.30444
head 17.7103 1.75912 5.12073
rclavicle 2.18663e-015 -3.57812e-015
rhumerus -33.027 -15.8502 -75.4161
rradius 30.7536
rwrist 5.32333
rhand -17.206 8.79314
rfingers 7.12502
rthumb 9.03654 -20.9933
lclavicle 2.18663e-015 -3.57812e-015
lhumerus -32.0892 20.8791 75.4
lradius 26.7395
lwrist -10.0195
lhand -24.8616 28.4664
lfingers 7.12502
lthumb 1.64528 58.4398
rfemur 1.65664 1.25338 15.1068
rtibia 23.3388
rfoot -18.4295 1.88885
rtoes -2.0392
lfemur -7.90372 -7.78382 -4.74805
ltibia 26.8955
lfoot -0.175612 5.86084
ltoes -1.30555
65
root -8.53519 17.8907 -9.09721 -47.242 -85.1206 44.6695
lowerback 11.3912 2.50831 0.990075
upperback 1.06882 3.38141 -0.581205
thorax -5.1682 1.6208 -1.6893
lowerneck -18.1198 4.80262 -7.85862
upperneck 42.2219 7.13808 4.79767
head 18.4171 1.751 4.95419
rclavicle 3.00662e-015 -5.1684e-015
rhumerus -33.0398 -15.1938 -75.5579
rradius 30.7859
rwrist 5.17302
rhand -17.2841 8.88
rfingers 7.12502
rthumb 8.96121 -20.9097
lclavicle 3.00662e-015 -5.1684e-015
lhumerus -32.2297 21.203 75.314
lradius 26.7099
lwrist -10.1793
lhand -25.2041 28.7081
lfingers 7.12502
lthumb 1.31448 58.6838
rfemur 1.82141 1.75939 14.7186
rtibia 23.024
rfoot -18.3381 1.84193
rtoes -0.905818
lfemur -7.56675 -8.27058 -4.41002
ltibia 26.2562
lfoot 0.0990104 6.5444
ltoes 2.99487
66
root -8.5418 17.8966 -9.01499 -48.6772 -84.9826 46.1395
lowerback 11.3659 2.55847 0.905894
upperback 1.02869 3.4326 -0.681222
thorax -5.19335 1.64668 -1.7544
lowerneck -18.1571 4.80862 -7.72549
upperneck 42.3267 7.16637 4.64381
head 18.5087 1.74973 4.87378
rclavicle -9.91439e-015 -3.18055e-015
rhumerus -33.1086 -15.0547 -75.6444
rradius 30.8514
rwrist 5.17133
rhand -17.2808 8.77131
rfingers 7.12502
rthumb 8.96435 -21.0182
lclavicle -9.91439e-015 -3.18055e-015
lhumerus -32.2211 21.0915 75.2876
lradius 26.6115
lwrist -10.0104
lhand -25.5656 28.5835
lfingers 7.12502
lthumb 0.965344 58.561
rfemur 2.00363 2.18885 14.2663
rtibia 22.7285
rfoot -18.2344 1.70587
rtoes 0.0171877
lfemur -7.27698 -8.8636 -4.19057
ltibia 25.5769
lfoot 0.634225 7.24248
ltoes 6.39753
67
root -8.54648 17.8953 -8.92882 -48.5197 -84.9358 46.0211
lowerback 11.3392 2.5674 0.979721
upperback 0.981418 3.45085 -0.753314
thorax -5.21865 1.65327 -1.87399
lowerneck -17.9342 4.79373 -7.68936
upperneck 42.1484 7.11699 4.60993
head 18.3492 1.74968 4.81737
rclavicle 3.62782e-015 -7.15625e-015
rhumerus -33.1967 -15.1812 -75.6532
rradius 30.8987
rwrist 5.53312
rhand -17.0015 8.7669
rfingers 7.12502
rthumb 9.2339 -21.0109
lclavicle 3.62782e-015 -7.15625e-015
lhumerus -32.1823 20.9783 75.2032
lradius 26.4682
lwrist -9.94432
lhand -25.872 28.3853
lfingers 7.12502
lthumb 0.669417 58.364
rfemur 2.16658 2.41405 13.9952
rtibia 22.4298
rfoot -18.1027 1.38194
rtoes -1.03735
lfemur -7.01242 -9.21614 -3.83524
ltibia 24.8825
lfoot 1.26507 7.50333
ltoes 6.20704
68
root -8.55505 17.895 -8.84197 -48.6998 -84.9497 46.2241
lowerback 11.2566 2.54703 0.981707
upperback 0.97015 3.42573 -0.730074
thorax -5.18673 1.64189 -1.84301
lowerneck -18.1532 4.79959 -7.7336
upperneck 42.3181 7.18902 4.57017
head 18.5063 1.74659 4.84349
rclavicle 8.19987e-015 9.93923e-015
rhumerus -33.1394 -14.9242 -75.6536
rradius 30.8645
rwrist 5.73995
rhand -16.7739 8.96541
rfingers 7.12502
rthumb 9.45355 -20.8026
lclavicle 8.19987e-015 9.93923e-015
lhumerus -32.2574 21.3779 75.0728
lradius 26.3642
lwrist -10.2293
lhand -25.8905 28.1102
lfingers 7.12502
lthumb 0.65152 58.0889
rfemur 2.34131 2.54913 13.7162
rtibia 22.1238
rfoot -17.9692 1.22869
rtoes -1.86434
lfemur -6.69942 -9.42132 -3.46916
ltibia 24.2262
lfoot 1.93904 7.58397
ltoes 5.71196
69
root -8.56591 17.9006 -8.7575 -48.8234 -85.0334 46.3629
lowerback 11.2107 2.56506 1.01974
upperback 0.950635 3.45584 -0.7145
thorax -5.17931 1.65642 -1.85084
lowerneck -18.4912 4.79995 -7.701
upperneck 42.5617 7.2252 4.56379
head 18.7485 1.73837 4.87876
rclavicle 5.48397e-014 7.15625e-015
rhumerus -33.092 -14.5453 -75.7157
rradius 30.8189
rwrist 5.64842
rhand -16.558 9.03171
rfingers 7.12502
rthumb 9.66182 -20.7267
lclavicle 5.48397e-014 7.15625e-015
lhumerus -32.3352 21.696 74.9462
lradius 26.3389
lwrist -10.3955
lhand -25.8249 28.1871
lfingers 7.12502
lthumb 0.714849 58.1656
rfemur 2.5117 2.81061 13.5118
rtibia 21.8496
rfoot -17.9098 1.12459
rtoes -1.81941
lfemur -6.41072 -9.58611 -3.0784
ltibia 23.6056
lfoot 2.90972 7.77513
ltoes 4.73325
70
root -8.57459 17.8962 -8.66968 -48.7236 -85.0679 46.2407
lowerback 11.2437 2.59913 1.05209
upperback 0.932363 3.50525 -0.722254
thorax -5.21268 1.67946 -1.88693
lowerneck -18.6684 4.78571 -7.68125
upperneck 42.6827 7.17617 4.66405
head 18.8709 1.72446 4.93399
rclavicle 1.80646e-014 6.36111e-015
rhumerus -33.1108 -14.2594 -75.781
rradius 30.8145
rwrist 5.55805
rhand -16.5084 9.01472
rfingers 7.12502
rthumb 9.7097 -20.7415
lclavicle 1.80646e-014 6.36111e-015
lhumerus -32.3543 21.9128 74.869
lradius 26.3091
lwrist -10.5628
lhand -25.8515 28.0457
lfingers 7.12502
lthumb 0.689174 58.0243
rfemur 2.70913 3.14646 13.2935
rtibia 21.6201
rfoot -17.9574 0.949939
rtoes -1.01459
lfemur -6.0733 -9.79407 -2.77527
ltibia 22.9683
lfoot 4.05963 8.01272
ltoes 2.29841
71
root -8.58311 17.8847 -8.57484 -49.3218 -85.0419 46.8375
lowerback 11.2126 2.63874 1.02467
upperback 0.930163 3.55428 -0.725129
thorax -5.19737 1.70453 -1.88037
lowerneck -18.8067 4.75576 -7.68843
upperneck 42.7443 7.17451 4.61868
head 18.9527 1.70879 4.92635
rclavicle -1.49089e-016 -1.59028e-015
rhumerus -33.1305 -14.0775 -75.7554
rradius 30.8248
rwrist 5.54124
rhand -16.7165 8.88716
rfingers 7.12502
rthumb 9.50884 -20.8783
lclavicle -1.49089e-016 -1.59028e-015
lhumerus -32.3505 21.9691 74.9137
lradius 26.2452
lwrist -10.6269
lhand -26.0087 27.8587
lfingers 7.12502
lthumb 0.537384 57.8378
rfemur 2.84605 3.29641 12.9224
rtibia 21.4469
rfoot -18.0164 0.81629
rtoes -1.15005
lfemur -5.69009 -9.93827 -2.59144
ltibia 22.3157
lfoot 5.09807 8.18571
ltoes 0.180143
72
root -8.5931 17.8754 -8.47728 -50.4715 -85.0285 48.0227
lowerback 11.1201 2.67447 0.997679
upperback 0.930655 3.59746 -0.739359
thorax -5.14443 1.7273 -1.88142
lowerneck -18.9407 4.77185 -7.69725
upperneck 42.7696 7.2523 4.5642
head 19.0024 1.72706 4.92623
rclavicle 4.27636e-014 -1.78906e-014
rhumerus -33.1128 -14.0042 -75.7243
rradius 30.7904
rwrist 5.51471
rhand -16.9563 8.72231
rfingers 7.12502
rthumb 9.27748 -21.0536
lclavicle 4.27636e-014 -1.78906e-014
lhumerus -32.3548 21.9103 75.0112
lradius 26.2577
lwrist -10.4343
lhand -25.9233 27.7506
lfingers 7.12502
lthumb 0.619842 57.7295
rfemur 2.91066 3.44741 12.5046
rtibia 21.3272
rfoot -18.0627 0.750032
rtoes -1.77248
lfemur -5.34067 -10.0716 -2.45037
ltibia 21.6787
lfoot 5.91781 8.50694
ltoes -0.202197
73
root -8.60283 17.8657 -8.37954 -49.8468 -85.0129 47.4287
lowerback 11.0668 2.66471 1.01573
upperback 0.888861 3.59114 -0.6836
thorax -5.16141 1.72455 -1.83102
lowerneck -18.8871 4.80408 -7.69709
upperneck 42.699 7.35065 4.4522
head 18.9424 1.75736 4.88241
rclavicle -1.69961e-014 -8.74653e-015
rhumerus -33.1079 -14.0583 -75.5263
rradius 30.6447
rwrist 5.60424
rhand -16.9664 8.90535
rfingers 7.12502
rthumb 9.26775 -20.871
lclavicle -1.69961e-014 -8.74653e-015
lhumerus -32.4513 22.0251 75.0472
lradius 26.2605
lwrist -10.4836
lhand -24.4759 27.16
lfingers 7.12502
lthumb 2.0177 57.1302
rfemur 2.99256 3.6548 12.22
rtibia 21.2373
rfoot -18.1163 0.566506
rtoes -1.85807
lfemur -5.08036 -10.2575 -2.19021
ltibia 21.0685
lfoot 6.42737 8.7127
ltoes 0.0140498
74
root -8.612 17.8534 -8.27834 -48.5045 -85.0303 46.0711
lowerback 11.1005 2.61647 1.07549
upperback 0.845627 3.54144 -0.587021
thorax -5.22996 1.69892 -1.75976
lowerneck -18.8552 4.81409 -7.69418
upperneck 42.6346 7.44217 4.27529
head 18.9 1.77355 4.80756
rclavicle -5.10131e-014 7.95139e-016
rhumerus -33.0894 -14.0284 -75.3399
rradius 30.5462
rwrist 5.80424
rhand -16.8349 8.82157
rfingers 7.12502
rthumb 9.39464 -20.9491
lclavicle -5.10131e-014 7.95139e-016
lhumerus -32.6111 22.1708 75.0633
lradius 26.3194
lwrist -10.6481
lhand -21.81 26.3089
lfingers 7.12502
lthumb 4.59222 56.2391
rfemur 3.14914 3.98818 12.0449
rtibia 21.1435
rfoot -18.1126 0.169153
rtoes -2.12723
lfemur -4.79146 -10.4657 -1.91318
ltibia 20.5019
lfoot 7.09277 8.39767
ltoes -3.16846
75
root -8.62164 17.8398 -8.1743 -48.5936 -85.0651 46.158
lowerback 11.1271 2.62046 1.13348
upperback 0.827192 3.55472 -0.584693
thorax -5.2603 1.70374 -1.79387
lowerneck -19.0519 4.77218 -7.60835
upperneck 42.7203 7.44283 4.11065
head 19.0297 1.75107 4.73198
rclavicle 1.25731e-014 -1.11319e-014
rhumerus -33.0672 -14.12 -75.2502
rradius 30.4645
rwrist 5.95867
rhand -16.8489 8.68491
rfingers 7.12502
rthumb 9.38115 -21.0863
lclavicle 1.25731e-014 -1.11319e-014
lhumerus -32.6325 22.2329 75.0491
lradius 26.2913
lwrist -10.9269
lhand -20.7222 25.8866
lfingers 7.12502
lthumb 5.64258 55.7915
rfemur 3.24899 4.30705 11.7511
rtibia 21.0996
rfoot -18.145 -0.0653402
rtoes -2.35779
lfemur -4.4535 -10.5495 -1.76853
ltibia 19.9404
lfoot 7.90565 7.72258
ltoes -7.11594
